<svg width="100" height="100" viewBox="0 0 100 100" fill="none" xmlns="http://www.w3.org/2000/svg">
<rect width="100" height="100" fill="#C7FFC6"></rect>
<path d="M50.8415 99.3743L16.9776 79.7518C15.4174 78.8488 15.114 76.7216 16.3534 75.4193L57.2555 32.3541C58.6337 30.9041 60.8352 30.5829 62.5687 31.5901L96.6407 51.3341C98.2008 52.237 98.5043 54.3642 97.2648 55.6666L56.5275 98.5581C55.0453 100.112 52.6964 100.451 50.8415 99.3743Z" fill="#024731"></path>
<path d="M50.8415 97.2274L16.9776 77.6049C15.4174 76.702 15.114 74.5748 16.3534 73.2724L57.2555 30.2072C58.6337 28.7573 60.8352 28.436 62.5687 29.4432L96.6407 49.1872C98.2008 50.0902 98.5043 52.2174 97.2648 53.5197L56.5275 96.4112C55.0453 97.9654 52.6964 98.304 50.8415 97.2274Z" fill="#6CF479"></path>
<path d="M50.8415 97.2274L16.9776 77.6049C15.4174 76.702 15.114 74.5748 16.3534 73.2724L57.2555 30.2072C58.6337 28.7573 60.8352 28.436 62.5687 29.4432L96.6407 49.1872C98.2008 50.0902 98.5043 52.2174 97.2648 53.5197L56.5275 96.4112C55.0453 97.9654 52.6964 98.304 50.8415 97.2274Z" fill="black"></path>
<path d="M81.3252 38.0639L31.0363 91.0097L38.993 95.6201L89.282 42.683L81.3252 38.0639Z" fill="#024731"></path>
<path d="M55.418 66.3763L8.81276 81.7703L31.9637 49.1849L57.7063 54.1947L62.5687 61.9308L55.418 66.3763Z" fill="#024731"></path>
<path d="M68.3065 48.1974L55.1665 6.43467C54.6811 4.88918 53.0083 3.86466 51.4222 4.1425L24.1108 9.03075L15.6687 7.75442L14.1172 10.9843C13.7444 11.6615 13.6404 12.4169 13.8831 13.2157L30.1521 64.9199C30.6374 66.4654 32.3102 67.4899 33.8964 67.2121L69.7713 60.7957C70.6293 60.6395 71.2707 60.1272 71.6088 59.45L73.3077 56.003L68.3065 48.1974Z" fill="#024731"></path>
<path d="M35.5606 63.7749L71.4354 57.3586C73.0129 57.0721 73.897 55.596 73.4117 54.0419L57.1427 2.33762C56.6573 0.792132 54.9844 -0.232388 53.3983 0.0454518L17.5235 6.4618C15.946 6.74832 15.0619 8.22435 15.5473 9.77852L31.8162 61.4828C32.3016 63.0282 33.9744 64.0528 35.5606 63.7749Z" fill="#11B67A"></path>
<path d="M23.2526 18.9475L55.7385 13.1303C56.3712 13.0174 56.7352 12.4183 56.5358 11.7932L54.317 4.73429C54.1176 4.10915 53.4416 3.70107 52.8088 3.81395L20.323 9.63122C19.6903 9.7441 19.3262 10.3432 19.5255 10.9683L21.7445 18.0272C21.9438 18.6523 22.6199 19.0604 23.2526 18.9475Z" fill="#024731"></path>
<path d="M36.7568 30.1049L41.0992 29.3235C41.6713 29.2193 41.9919 28.6809 41.8186 28.1253L40.4752 23.8708C40.3018 23.3065 39.695 22.9418 39.1143 23.0373L34.7719 23.8188C34.1998 23.9229 33.8792 24.4613 34.0525 25.0169L35.396 29.2714C35.5694 29.8357 36.176 30.2004 36.7568 30.1049Z" fill="#6CF479"></path>
<path d="M27.5344 31.7532L31.8768 30.9718C32.4489 30.8676 32.7696 30.3293 32.5962 29.7736L31.2528 25.5192C31.0795 24.9548 30.4727 24.5901 29.892 24.6857L25.5495 25.4671C24.9775 25.5713 24.6568 26.1096 24.8302 26.6653L26.1737 30.9197C26.347 31.484 26.9537 31.8487 27.5344 31.7532Z" fill="#6CF479"></path>
<path d="M45.9702 28.4532L50.3127 27.6718C50.8847 27.5676 51.2054 27.0293 51.032 26.4736L49.6886 22.2192C49.5153 21.6548 48.9085 21.2901 48.3278 21.3856L43.9853 22.1671C43.4133 22.2713 43.0926 22.8096 43.266 23.3652L44.6095 27.6197C44.7828 28.184 45.3895 28.5487 45.9702 28.4532Z" fill="#6CF479"></path>
<path d="M55.1926 26.8049L59.535 26.0235C60.1071 25.9193 60.4278 25.3809 60.2544 24.8253L58.911 20.5708C58.7376 20.0065 58.1309 19.6418 57.5501 19.7373L53.2077 20.5187C52.6357 20.6229 52.315 21.1612 52.4883 21.7169L53.8317 25.9713C54.0051 26.5357 54.6119 26.9004 55.1926 26.8049Z" fill="#6CF479"></path>
<path d="M64.7182 39.0132L68.9132 52.2627C69.0866 52.827 68.7659 53.3654 68.1939 53.4609L63.8514 54.2423C63.2794 54.3465 62.6727 53.9731 62.4907 53.4088L58.2955 40.1593C58.1222 39.5949 58.4429 39.0566 59.015 38.9611L63.3574 38.1797C63.9295 38.0755 64.5362 38.4488 64.7182 39.0132Z" fill="#6CF479"></path>
<path d="M42.564 48.5552L46.9064 47.7737C47.4785 47.6696 47.7992 47.1312 47.6259 46.5756L46.2824 42.3211C46.109 41.7568 45.5023 41.3921 44.9216 41.4876L40.5792 42.269C40.0071 42.3732 39.6863 42.9116 39.8597 43.4672L41.2032 47.7216C41.3766 48.286 41.9832 48.6507 42.564 48.5552Z" fill="#00482F"></path>
<path d="M51.7776 46.9035L56.1201 46.1221C56.6921 46.0179 57.0129 45.4795 56.8396 44.9239L55.496 40.6695C55.3227 40.1051 54.716 39.7404 54.1353 39.8359L49.7929 40.6174C49.2208 40.7216 48.9 41.2598 49.0734 41.8155L50.4169 46.07C50.5902 46.6343 51.1969 46.999 51.7776 46.9035Z" fill="#00482F"></path>
<path d="M33.3939 50.2306L37.7363 49.4492C38.3084 49.345 38.629 48.8067 38.4557 48.251L37.1123 43.9966C36.9389 43.4322 36.3321 43.0676 35.7514 43.1631L31.409 43.9445C30.8369 44.0487 30.5163 44.587 30.6896 45.1427L32.0331 49.3971C32.2065 49.9615 32.8132 50.3261 33.3939 50.2306Z" fill="#00482F"></path>
<path d="M45.459 57.7769L49.8014 56.9955C50.3735 56.8913 50.6941 56.353 50.5208 55.7973L49.1773 51.5429C49.0039 50.9785 48.3973 50.6139 47.8165 50.7094L43.4741 51.4908C42.902 51.595 42.5814 52.1333 42.7547 52.689L44.0981 56.9434C44.2715 57.5078 44.8783 57.8724 45.459 57.7769Z" fill="#00482F"></path>
<path d="M54.6814 56.1252L59.0238 55.3438C59.5958 55.2396 59.9165 54.7013 59.7432 54.1456L58.3996 49.8912C58.2263 49.3268 57.6196 48.9622 57.0389 49.0577L52.6965 49.8391C52.1244 49.9433 51.8037 50.4816 51.9771 51.0373L53.3205 55.2917C53.4938 55.8561 54.1006 56.2207 54.6814 56.1252Z" fill="#00482F"></path>
<path d="M36.2974 59.4524L40.6398 58.6709C41.2119 58.5668 41.5326 58.0284 41.3593 57.4728L40.0158 53.2183C39.8424 52.654 39.2357 52.2893 38.655 52.3848L34.3126 53.1663C33.7405 53.2704 33.4198 53.8088 33.5931 54.3644L34.9366 58.6189C35.11 59.1832 35.7166 59.5479 36.2974 59.4524Z" fill="#00482F"></path>
<path d="M39.6605 39.3266L44.0029 38.5452C44.575 38.441 44.8957 37.9027 44.7224 37.347L43.3789 33.0926C43.2055 32.5282 42.5987 32.1636 42.018 32.2591L37.6757 33.0405C37.1036 33.1447 36.7829 33.683 36.9562 34.2387L38.2997 38.4931C38.4731 39.0575 39.0797 39.4221 39.6605 39.3266Z" fill="#00482F"></path>
<path d="M30.4381 40.9749L34.7805 40.1935C35.3526 40.0893 35.6734 39.551 35.5 38.9953L34.1565 34.7409C33.9832 34.1766 33.3765 33.8119 32.7958 33.9074L28.4533 34.6888C27.8813 34.793 27.5605 35.3313 27.7338 35.887L29.0774 40.1414C29.2507 40.7058 29.8574 41.0704 30.4381 40.9749Z" fill="#00482F"></path>
<path d="M48.8739 37.6749L53.2164 36.8935C53.7884 36.7893 54.1091 36.251 53.9357 35.6953L52.5923 31.4409C52.419 30.8765 51.8122 30.5119 51.2315 30.6074L46.8891 31.3888C46.3171 31.493 45.9963 32.0313 46.1697 32.587L47.5132 36.8414C47.6865 37.4058 48.2932 37.7704 48.8739 37.6749Z" fill="#00482F"></path>
<path d="M58.0963 36.0266L62.4387 35.2452C63.0108 35.141 63.3315 34.6027 63.1581 34.047L61.8147 29.7926C61.6414 29.2282 61.0346 28.8636 60.4538 28.9591L56.1114 29.7405C55.5394 29.8447 55.2187 30.383 55.392 30.9387L56.7355 35.1931C56.9089 35.7575 57.5156 36.1221 58.0963 36.0266Z" fill="#00482F"></path>
<path d="M23.2526 18.9475L55.7385 13.1303C56.3712 13.0174 56.7352 12.4183 56.5358 11.7932L54.317 4.73429C54.1176 4.10915 53.4416 3.70107 52.8088 3.81395L20.323 9.63122C19.6903 9.7441 19.3262 10.3432 19.5255 10.9683L21.7445 18.0272C21.9438 18.6523 22.6199 19.0604 23.2526 18.9475Z" fill="black"></path>
<path d="M22.5939 20.0596L55.0797 14.2424C55.7125 14.1295 56.0765 13.5304 55.8772 12.9053L53.5195 5.42097C53.3982 5.03026 52.9822 4.77846 52.5835 4.84792L19.6643 10.7433C19.0315 10.8562 18.6675 11.4553 18.8668 12.0804L21.0857 19.1393C21.2851 19.7644 21.9612 20.1725 22.5939 20.0596Z" fill="#2F8260"></path>
<path d="M10.3208 66.8122C4.39222 62.0107 5.22429 53.1112 11.9416 46.252C10.1994 42.0237 11.6903 36.5016 15.8767 31.6741C12.0803 34.2615 8.49194 37.8127 5.53631 41.9889C-1.94376 52.5555 0.283783 66.1436 9.31534 70.1289C13.5624 72.0043 18.6676 71.6396 23.6167 69.5298C18.5722 70.3807 13.6925 69.5385 10.3208 66.8122Z" fill="white"></path>
</svg>