<svg width="100" height="100" viewBox="0 0 100 100" fill="none" xmlns="http://www.w3.org/2000/svg">
<g clip-path="url(#clip0_15980_10226)">
<rect width="100" height="100" fill="#C7FFC6"></rect>
<path d="M97.2328 32.387C97.1164 31.5817 96.5925 30.8735 95.7581 30.3884L62.6455 11.0621C61.9372 10.6547 61.1029 10.4606 60.2685 10.4606C58.949 10.4606 57.6199 10.9457 56.737 11.8674L44.9201 24.2179C31.1239 38.8484 17.1338 53.2849 3.24061 67.8184C2.60028 68.4878 2.30922 69.2834 2.42564 70.0595C2.54207 70.8648 3.06597 71.573 3.91004 72.0581L37.013 91.3844C38.837 92.4419 41.4856 92.0829 42.9215 90.5791L96.4082 34.6281C97.0485 33.9684 97.3396 33.1631 97.2231 32.387H97.2328Z" fill="#11B67A"></path>
<path d="M98.659 39.8367L98.0769 34.5297C97.8829 34.879 97.65 35.2186 97.3493 35.529L43.8625 91.48C42.7468 92.6442 41.049 93.2749 39.3706 93.2749C38.313 93.2749 37.2555 93.0226 36.363 92.5084L3.26 73.1822C2.18308 72.5613 1.47484 71.6493 1.21289 70.5918L1.92113 77.1406C2.02785 78.1399 2.64878 79.0907 3.73539 79.7116L37.4593 99.3968C39.5355 100.6 42.5334 100.192 44.1633 98.4848L97.65 42.5338C98.4262 41.7188 98.756 40.7584 98.6493 39.8464L98.659 39.8367Z" fill="#024731"></path>
<path d="M29.6105 72.5238C31.7838 73.7754 32.1621 76.2493 30.4546 78.0345C28.7471 79.8196 25.6036 80.2465 23.4304 78.995C21.2572 77.7434 20.8691 75.2694 22.5766 73.4843C24.2842 71.6991 27.4276 71.2723 29.6105 72.5238Z" fill="#C7FFC6"></path>
<path d="M79.7596 61.6193C79.7596 61.6193 82.4858 70.6518 93.5169 73.1452C93.5169 73.1452 85.1538 74.5908 84.9889 84.6323C84.9889 84.6323 82.0492 75.9296 71.4547 73.1355C71.4547 73.1355 80.3029 72.078 79.7596 61.6193Z" fill="#6CF479"></path>
<path d="M70.4845 21.2364C71.2316 21.673 71.3674 22.5268 70.7756 23.1477C70.1837 23.7686 69.0874 23.9142 68.3404 23.4776C67.5933 23.041 67.4575 22.1872 68.0493 21.5663C68.6411 20.9454 69.7278 20.7999 70.4845 21.2364Z" fill="#C7FFC6"></path>
<path d="M81.0401 27.3327C81.7968 27.7693 81.923 28.6231 81.3409 29.244C80.749 29.8649 79.6527 30.0105 78.9057 29.5739L72.8517 26.0812C72.1046 25.6446 71.9688 24.7908 72.5606 24.1699C73.1524 23.549 74.2391 23.4035 74.9958 23.84L81.0498 27.3327H81.0401Z" fill="#C7FFC6"></path>
<path d="M84.0093 53.1867C84.2616 53.6524 84.7564 53.73 85.1153 53.3516L90.3835 47.8603C90.7425 47.4916 90.8298 46.8028 90.5872 46.3274C90.335 45.8617 89.8402 45.7841 89.4812 46.1625L84.2131 51.6538C83.8541 52.0224 83.7571 52.7113 84.0093 53.1867Z" fill="#C7FFC6"></path>
<path d="M76.2089 61.3158C76.4612 61.7815 76.956 61.8591 77.3149 61.4807L82.5831 55.9895C82.9421 55.6111 83.0391 54.9319 82.7868 54.4566C82.5346 53.9909 82.0398 53.9132 81.6808 54.2916L76.4127 59.7829C76.0537 60.1516 75.9567 60.8404 76.2089 61.3158Z" fill="#C7FFC6"></path>
<path d="M39.0115 0.0878906C39.0115 0.0878906 40.7773 5.92845 47.9179 7.54867C47.9179 7.54867 42.5042 8.48005 42.3975 14.99C42.3975 14.99 40.4862 9.36293 33.6366 7.54867C33.6366 7.54867 39.3608 6.86954 39.0018 0.0975925L39.0115 0.0878906Z" fill="#6CF479"></path>
<path d="M18.4724 62.7412C14.9991 62.5181 9.71155 60.9658 9.71155 60.9755C9.71155 60.9852 17.5313 52.9714 17.5313 52.9714C17.997 52.0691 42.6593 25.7866 42.6593 25.7866C48.1506 37.361 58.0465 37.7782 58.0465 37.7782L57.8234 43.3471C57.8234 43.3471 42.5332 64.2839 18.4724 62.7412Z" fill="#024731"></path>
<path d="M58.0467 37.789C56.1839 37.0807 54.3405 36.2464 52.6621 35.0724C47.035 31.1431 44.0177 25.3802 43.6296 19.3844C37.0614 20.5195 30.173 19.6367 24.5168 15.591C22.8287 14.3782 21.4316 12.8259 20.1995 11.3512C19.8405 11.749 19.3942 12.108 19.074 12.5349C9.00344 25.9235 0.553063 40.2921 10.5946 57.4451C28.8342 62.6841 45.5797 51.8762 57.0668 39.0502C57.4257 38.6524 57.6974 38.1964 58.037 37.7793C58.037 37.7793 58.037 37.7793 58.0467 37.7793V37.789ZM12.2439 55.5532C3.79351 39.7196 11.4871 28.2714 20.3644 15.0477C21.2764 16.0178 22.1884 16.8328 23.1294 17.5119C28.3588 21.2763 34.8203 22.3823 41.4758 21.8584C42.543 27.7669 46.0357 33.0932 51.1971 36.7314C52.1285 37.3912 53.1472 37.983 54.3017 38.5457C41.6213 49.9552 30.3962 59.0168 12.2536 55.5532H12.2439Z" fill="#6CF479"></path>
<path d="M40.6126 22.8594C33.9765 23.1795 27.709 22.1317 22.5282 18.3868C21.8394 17.892 21.1796 17.3293 20.5296 16.6986C12.38 28.8163 4.87071 40.1676 13.0106 54.6817C30.1151 57.7087 40.5544 49.4232 52.6721 38.8093C51.9056 38.3921 51.1974 37.9556 50.528 37.4802C45.4442 33.8808 41.8932 28.7096 40.6223 22.8594H40.6126Z" fill="#6CF479"></path>
<path d="M20.6844 19.0445C20.6844 19.0445 27.1944 23.75 35.4896 24.0119C35.4896 24.0119 29.9789 24.7105 27.3302 26.3792C27.3302 26.3792 20.1411 21.0722 13.8349 29.2898C13.8349 29.2898 17.5022 23.2358 20.6844 19.0445Z" fill="white"></path>
<path d="M13.2531 39.2835C14.3883 44.4255 25.9821 50.819 29.7464 49.9944C29.7464 49.9944 31.3569 47.501 30.7845 46.036C30.2121 44.571 27.2724 41.1365 27.2724 41.1365C25.0216 42.097 22.4214 40.9813 22.1498 37.9543C20.0445 37.2461 17.7645 36.4796 16.3869 36.761C14.9801 36.8677 14.0875 38.0222 13.2531 39.2738V39.2835Z" fill="black"></path>
<path d="M30.4935 30.553C30.4935 30.553 29.0188 29.5343 27.127 30.0388C25.2351 30.5433 24.0806 32.7069 24.0806 32.7069C23.5664 33.4927 22.0723 38.2467 24.3425 39.6825C26.6128 41.1184 29.6398 38.5571 29.6398 38.5571C29.6398 38.5571 31.4928 37.2765 32.1234 34.589C32.7541 31.9016 30.4838 30.553 30.4838 30.553H30.4935Z" fill="black"></path>
</g>
<defs>
<clipPath id="clip0_15980_10226">
<rect width="100" height="100" fill="white"></rect>
</clipPath>
</defs>
</svg>