<svg width="100" height="100" viewBox="0 0 100 100" fill="none" xmlns="http://www.w3.org/2000/svg">
<g clip-path="url(#clip0_15980_2182)">
<rect width="100" height="100" fill="#C7FFC6"></rect>
<path d="M84.4013 81.0473H-0.0585938V85.3114H84.4013V81.0473Z" fill="#024731"></path>
<path d="M72.9882 60.068H11.3629L0.204624 84.1912C-0.636068 86.0028 0.680188 88.0879 2.66728 88.0879H81.6839C83.671 88.0879 84.9872 86.0114 84.1465 84.1912L72.9882 60.068Z" fill="#024731"></path>
<path d="M72.9882 55.8555H11.3629L0.204624 79.9787C-0.636068 81.7903 0.680188 83.8754 2.66728 83.8754H81.6839C83.671 83.8754 84.9872 81.7988 84.1465 79.9787L72.9882 55.8555Z" fill="#6CF479"></path>
<path d="M70.1265 12.0879C71.6296 12.0879 72.8439 13.3184 72.8439 14.8224V54.2671H11.4903V14.8224C11.4903 13.3099 12.7131 12.0879 14.2077 12.0879H70.1265Z" fill="#11B67A"></path>
<path d="M42.1713 17.6669C42.7716 17.6669 43.2583 17.1771 43.2583 16.573C43.2583 15.969 42.7716 15.4793 42.1713 15.4793C41.571 15.4793 41.0843 15.969 41.0843 16.573C41.0843 17.1771 41.571 17.6669 42.1713 17.6669Z" fill="#6CF479"></path>
<path d="M75.8076 70.8711L71.0182 60.6766C70.721 60.0357 70.0841 59.6341 69.3793 59.6341H14.972C14.2672 59.6341 13.6303 60.0442 13.3331 60.6766L8.54369 70.8711C8.1191 71.7769 8.77298 72.8279 9.77502 72.8279H25.1028C25.6548 72.8279 26.0878 73.3236 26.0029 73.879L25.8246 75.0155C25.6972 75.8444 26.3341 76.5964 27.1663 76.5964H57.1765C58.0087 76.5964 58.6456 75.8444 58.5182 75.0155L58.3399 73.879C58.2549 73.3236 58.6795 72.8279 59.24 72.8279H74.5678C75.5698 72.8279 76.2237 71.7854 75.7991 70.8711H75.8076Z" fill="#024731"></path>
<path d="M99.9414 61.5654L85.5392 51.2257L87.8405 68.8801L91.8742 63.8897L98.0137 74.1868L99.814 73.1015L93.6744 62.8045L99.9414 61.5654Z" fill="white"></path>
<path d="M30.546 35.16C31.1659 35.536 31.8962 35.8265 32.6605 35.8265C33.4248 35.8265 34.1551 35.536 34.775 35.16C36.1846 34.314 37.2036 32.9296 37.7726 31.3744C38.4519 29.503 38.5113 27.8196 38.5113 27.8196C38.6982 23.5214 35.8789 21.3509 32.6605 21.3509C29.4421 21.3509 26.6228 23.5128 26.8096 27.8196C26.8096 27.8196 26.869 29.4944 27.5484 31.3744C28.1173 32.9296 29.1279 34.314 30.546 35.16ZM45.9587 43.765C45.135 40.7143 43.8018 39.5694 41.2797 38.7319L37.2461 37.3048C37.2461 37.3048 36.6431 37.0827 35.709 36.8861C34.69 37.4843 33.671 37.7919 32.669 37.7919C31.667 37.7919 30.6394 37.4843 29.6289 36.8861C28.6948 37.0912 28.0919 37.3048 28.0919 37.3048L24.0583 38.7319C21.5362 39.5694 20.203 40.7143 19.3792 43.765L18.3602 47.9009H46.9862L45.9672 43.765H45.9587Z" fill="#024731"></path>
<path d="M65.388 17.5922H50.901C49.963 17.5922 49.2026 18.3574 49.2026 19.3013V36.4943C49.2026 37.4382 49.963 38.2034 50.901 38.2034H65.388C66.326 38.2034 67.0864 37.4382 67.0864 36.4943V19.3013C67.0864 18.3574 66.326 17.5922 65.388 17.5922Z" fill="#00482F"></path>
<path d="M64.0379 31.7235C63.6897 30.4331 63.1292 29.9546 62.0593 29.5957L60.3609 28.989C60.3609 28.989 60.3269 28.9805 60.2759 28.9634C60.174 29.0403 60.0806 29.1172 59.9702 29.1856C59.4607 29.4932 58.9427 29.647 58.4247 29.647C57.9067 29.647 57.3887 29.4932 56.8792 29.1856C56.7688 29.1172 56.6754 29.0403 56.5735 28.9634C56.5226 28.9805 56.4886 28.989 56.4886 28.989L54.7902 29.5957C53.7288 29.9461 53.1598 30.4331 52.8116 31.7235L52.3785 33.4667H64.4709L64.0379 31.7235ZM57.5246 28.0917C57.7878 28.2456 58.0935 28.3738 58.4162 28.3738C58.7389 28.3738 59.0447 28.2541 59.3079 28.0917C59.9023 27.7328 60.3354 27.1518 60.5732 26.4938C60.8619 25.6991 60.8874 24.9898 60.8874 24.9898C60.9638 23.1697 59.7749 22.2554 58.4162 22.2554C57.0575 22.2554 55.8687 23.1697 55.9451 24.9898C55.9451 24.9898 55.9706 25.6991 56.2593 26.4938C56.4971 27.1518 56.9302 27.7328 57.5246 28.0917Z" fill="white"></path>
</g>
<defs>
<clipPath id="clip0_15980_2182">
<rect width="100" height="100" fill="white"></rect>
</clipPath>
</defs>
</svg>