<svg width="24" height="24" viewBox="0 0 24 24" fill="none" xmlns="http://www.w3.org/2000/svg">
<g clip-path="url(#clip0_16163_1221)">
<path fill-rule="evenodd" clip-rule="evenodd" d="M5.43421 12.3193C5.43421 13.2724 4.66544 14.0454 3.71724 14.0454C2.76877 14.0454 2 13.2724 2 12.3193C2 11.3662 2.76877 10.5932 3.71724 10.5932C4.66544 10.5932 5.43421 11.3662 5.43421 12.3193ZM11.9934 5.43664C11.045 5.43664 10.2762 6.20963 10.2762 7.1627C10.2762 8.11577 11.045 8.88849 11.9934 8.88849C12.9416 8.88849 13.7104 8.11577 13.7104 7.1627C13.7104 6.20963 12.9416 5.43664 11.9934 5.43664ZM22 12.3193C22 13.2724 21.2315 14.0454 20.283 14.0454C19.3348 14.0454 18.5661 13.2724 18.5661 12.3193C18.5661 11.3662 19.3348 10.5932 20.283 10.5932C21.2315 10.5932 22 11.3662 22 12.3193ZM11.9926 15.731C11.0441 15.731 10.2754 16.504 10.2754 17.4571C10.2754 18.4105 11.0441 19.1832 11.9926 19.1832C12.9408 19.1832 13.7096 18.4105 13.7096 17.4571C13.7096 16.504 12.9408 15.731 11.9926 15.731ZM19.7671 6.02536L11.9926 10.7209L4.21757 6.02508V9.23404L9.33582 12.3252L4.21757 15.4163V18.6256L11.9926 13.9298L19.7671 18.625V15.4161L14.6494 12.3255L19.7671 9.2346V6.02536Z" fill="#05286A"></path>
</g>
<defs>
<clipPath id="clip0_16163_1221">
<rect width="24" height="24" fill="white"></rect>
</clipPath>
</defs>
</svg>